<svg xmlns="http://www.w3.org/2000/svg" viewBox="0 0 532.2 474.72"><defs><style>.cls-1{fill:#9c613f;}.cls-2{fill:#d18d6f;}.cls-17,.cls-18,.cls-22,.cls-23,.cls-3,.cls-42,.cls-46,.cls-48,.cls-50{fill:#fff;}.cls-4{fill:#fec7a3;}.cls-10,.cls-11,.cls-5{fill:#e99276;}.cls-5{opacity:0.49;}.cls-6{fill:#1b1b2b;}.cls-14,.cls-7{fill:#723f28;}.cls-46,.cls-7{opacity:0.48;}.cls-8{fill:#181828;}.cls-9{fill:#131321;}.cls-11,.cls-12{opacity:0.62;}.cls-13,.cls-42{opacity:0.45;}.cls-15{fill:#c18a76;opacity:0.39;}.cls-15,.cls-40,.cls-50{isolation:isolate;}.cls-16{fill:#2e2d4c;}.cls-17{opacity:0.89;}.cls-18{opacity:0.59;}.cls-19{fill:#87d6e8;}.cls-20{fill:#bbecfc;}.cls-21{fill:#67b2ba;}.cls-22{opacity:0.55;}.cls-23{opacity:0.33;}.cls-24{fill:#dbe6f3;}.cls-25{fill:#e4eef9;}.cls-26{fill:#def2f7;}.cls-27{fill:#d0ecf2;}.cls-28{fill:#bbe4f0;}.cls-29{fill:#98daf2;}.cls-30{fill:#80b9ec;}.cls-31{fill:#4d9be4;}.cls-32{fill:#1074d7;}.cls-33{fill:#228ae0;}.cls-34{opacity:0.15;}.cls-35,.cls-40{fill:#1b3c47;}.cls-36{fill:#c0e5f2;}.cls-37{fill:#e88267;}.cls-38{fill:#ffb39d;}.cls-39{fill:#bbd3ea;}.cls-40{opacity:0.5;}.cls-41{fill:#42565e;}.cls-43{fill:#f2bf46;}.cls-44{fill:#d88d41;}.cls-45{fill:#c9782f;}.cls-47{fill:#ce932c;}.cls-48{opacity:0.61;}.cls-49,.cls-50{opacity:0.2;}.cls-51{fill:#22223a;}</style></defs><title>Asset 40</title><g id="Layer_2" data-name="Layer 2"><g id="Layer_1-2" data-name="Layer 1"><path class="cls-1" d="M309.14,23.14c-4.12-1.22-9.32.3-12.3-2.48C262.4-11.59,212.35,9.78,212.35,9.78,233.44,9.4,251,28,251,28V46.34h74.83S324.77,29.85,323.22,29,309.14,23.14,309.14,23.14Z"/><path class="cls-2" d="M296.84,20.66C262.4-11.59,208.76,9.1,208.76,9.1,213.94,9,226.4,12.33,230.94,14c16.54-7.77,41.25-5.52,62.31,6Z"/><path class="cls-3" d="M297.18,19.81A47.5,47.5,0,0,0,270.11,7c-19.3-4.32-37.82.35-47,3.44a36,36,0,0,0-9-1S262.8-12.91,297.18,19.81Z"/><path class="cls-4" d="M252,221.73l27.49.52h0l-.82,59.08a13.72,13.72,0,0,1-14,13.52h0a13.83,13.83,0,0,1-13.54-14l.83-59.08Z"/><path class="cls-5" d="M280.15,256.33l-1.73,14.33a16.27,16.27,0,0,1-9.38-.75,76.79,76.79,0,0,0-16.52-5.27l-.12,0,.14-8.28a73.3,73.3,0,0,0,12.28,1.2A74.3,74.3,0,0,0,280.15,256.33Z"/><path class="cls-6" d="M264.55,296.35h-.29a15.34,15.34,0,0,1-15-15.57l.82-59.07a1.5,1.5,0,0,1,1.5-1.48h.05l27.5.52a1.49,1.49,0,0,1,1.47,1.52l-.82,59.08a15.22,15.22,0,0,1-15.22,15Zm-11.5-73.09-.8,57.57a12.33,12.33,0,0,0,12.06,12.52,12,12,0,0,0,8.72-3.43,12.15,12.15,0,0,0,3.74-8.62l.8-57.58Z"/><path class="cls-2" d="M340.48,42.18c33.78,38.35-8.61,142.1-8.61,142.1"/><path class="cls-2" d="M197.34,153s-21.42-18.66-9.74-72c0,0-9.2,7.26-12.88,14.15,0,0-10.27-51.58,38.27-71.41,24.5-10,40.93,2.51,48.89,14.43"/><path class="cls-1" d="M331.87,172.52l8-51.89A73.71,73.71,0,0,0,318.2,68.34c-.79-.79-1.59-1.56-2.42-2.31-12.94,7.84-30.51,12.66-49.87,12.66S229,73.87,216.05,66A73.76,73.76,0,0,0,192,120.63v27.76c-5.47-7.77-15.3-28.27-6.54-68.24,0,0-9.2,7.26-12.89,14.15,0,0-7.39-39.13,39.52-62.56,13.51-6.75,26.87-7.26,47.1,7.24l-.51-4.83S303,5.5,338.75,42C364.9,68.67,342.47,149,331.87,172.52Z"/><path class="cls-7" d="M187.3,139.3S177.68,94,209.72,70.8L192,142.3Z"/><path class="cls-8" d="M331.41,187.49a2.1,2.1,0,0,1-.73-.14,2,2,0,0,1-1.13-2.59c.4-1,40.28-104.44,7.7-141.43A63.42,63.42,0,0,0,315.38,27.1,2,2,0,0,1,317,23.44a67.46,67.46,0,0,1,23.24,17.24c14.44,16.4,17.62,45.95,9.46,87.83a376.29,376.29,0,0,1-16.44,57.7A2,2,0,0,1,331.41,187.49Z"/><path class="cls-9" d="M322.15,40.1a1.13,1.13,0,0,1-.86-.4,12.81,12.81,0,0,0-3.58-2.87,1.12,1.12,0,1,1,1-2A15.16,15.16,0,0,1,323,38.27a1.12,1.12,0,0,1-.15,1.57A1.14,1.14,0,0,1,322.15,40.1Z"/><ellipse class="cls-6" cx="313.95" cy="33.68" rx="1.35" ry="1.84" transform="translate(99.74 265.66) rotate(-53.4)"/><path class="cls-4" d="M197.51,149.39l8.42.17a20,20,0,0,1,19.53,20.31h0a19.83,19.83,0,0,1-20.23,19.51l-8.42-.17a20,20,0,0,1-19.53-20.31h0A19.83,19.83,0,0,1,197.51,149.39Z"/><path class="cls-8" d="M171,170.63h0a2,2,0,0,1-2-2,21.67,21.67,0,0,1,2.51-9.83,22.49,22.49,0,0,1,1.74-2.76,2,2,0,1,1,3.22,2.37,18.69,18.69,0,0,0-1.42,2.26,17.76,17.76,0,0,0-2,8A2,2,0,0,1,171,170.63Z"/><path class="cls-8" d="M199.32,191.11h-.45l-8.42-.17a21.86,21.86,0,0,1-20.07-14.15,2,2,0,1,1,3.74-1.42,17.88,17.88,0,0,0,16.41,11.57l8.42.17a17.84,17.84,0,0,0,18.19-17.55,18,18,0,0,0-17.57-18.28l-8.42-.17a17.81,17.81,0,0,0-9.28,2.39,2,2,0,0,1-2-3.46,22,22,0,0,1,11.37-2.93l8.42.17a22,22,0,0,1,21.49,22.35,21.83,21.83,0,0,1-21.82,21.48Z"/><path class="cls-10" d="M194.74,165.68l4.39.09a10.38,10.38,0,0,1,10.17,10.56h0a10.33,10.33,0,0,1-10.54,10.15l-4.38-.09a10.38,10.38,0,0,1-10.17-10.56h0A10.33,10.33,0,0,1,194.74,165.68Z"/><path class="cls-3" d="M184.61,161.89a7.25,7.25,0,0,1,3.57-3.95,1.46,1.46,0,0,0,1-1.75,1.43,1.43,0,0,0-1.75-1,9.8,9.8,0,0,0-5.27,5.26,1.45,1.45,0,0,0,.51,1.94,1.43,1.43,0,0,0,2-.51Z"/><ellipse class="cls-3" cx="181.64" cy="166.39" rx="1.96" ry="1.57" transform="translate(-9.51 321.77) rotate(-81.6)"/><path class="cls-4" d="M331.23,149.39l8.42.17a20,20,0,0,1,19.53,20.31h0A19.83,19.83,0,0,1,339,189.38l-8.42-.17A20,20,0,0,1,311,168.9h0A19.85,19.85,0,0,1,331.23,149.39Z"/><path class="cls-8" d="M339.36,191.11h-.45l-8.42-.17A22,22,0,0,1,309,168.59a21.84,21.84,0,0,1,22.27-21.48h0l8.42.17a22,22,0,0,1,21.49,22.35,21.83,21.83,0,0,1-21.82,21.48Zm-8.54-40A17.84,17.84,0,0,0,313,168.66a18,18,0,0,0,17.57,18.28l8.42.17a17.84,17.84,0,0,0,18.19-17.55,18,18,0,0,0-17.57-18.28l-8.42-.17Z"/><path class="cls-10" d="M334.78,165.68l4.39.09a10.39,10.39,0,0,1,10.17,10.56h0a10.33,10.33,0,0,1-10.54,10.15l-4.38-.09a10.38,10.38,0,0,1-10.17-10.56h0A10.33,10.33,0,0,1,334.78,165.68Z"/><path class="cls-3" d="M320.65,163.89a7.27,7.27,0,0,1,3.56-3.95,1.46,1.46,0,0,0,1-1.75,1.43,1.43,0,0,0-1.75-1,9.77,9.77,0,0,0-5.27,5.26,1.45,1.45,0,0,0,.51,1.94,1.43,1.43,0,0,0,1.95-.51Z"/><ellipse class="cls-3" cx="317.68" cy="168.39" rx="1.96" ry="1.57" transform="translate(104.67 458.05) rotate(-81.6)"/><path class="cls-4" d="M340.38,121.23v65.46a73.95,73.95,0,1,1-147.9,0V121.23a73.76,73.76,0,0,1,24.09-54.61c12.93,7.85,30.5,12.67,49.86,12.67s36.93-4.82,49.87-12.66c.83.75,1.63,1.52,2.42,2.31A73.71,73.71,0,0,1,340.38,121.23Z"/><path class="cls-3" d="M273.08,259.56c-1.89.15-3.81.22-5.74.22-40.84,0-78.33-32.58-73.95-73.95V120.37a73.76,73.76,0,0,1,24.09-54.61c2.34,1.42,1.84,2.75,4.47,4C209.5,83,199.87,100.77,199.87,120.37v65.46C199.87,224.75,229.84,258.29,273.08,259.56Z"/><path class="cls-7" d="M270,73.45c16.65,0,26.38-4.44,33.82-6.24,1.47-.35,23.76-4.25-2.77,5.6-36.41,13.51-65.33,2-73.22-1.66l-.82-.38C203,59.47,236.63,73.45,270,73.45Z"/><circle class="cls-4" cx="308.32" cy="143.79" r="5.42"/><ellipse class="cls-3" cx="211" cy="86.86" rx="8.19" ry="5.8" transform="translate(30.28 226.16) rotate(-60)"/><ellipse class="cls-3" cx="220.93" cy="85.97" rx="1.69" ry="2.38"/><circle class="cls-3" cx="219.37" cy="92.05" r="1.38"/><path class="cls-11" d="M319.12,69.29c-.79-.79-1.59-1.56-2.42-2.31a74.39,74.39,0,0,1-7.64,4c.34.36.66.74,1,1.11-23.73,11.33-48.43,8.73-48.68,8.71a2,2,0,1,0-.45,4,72.11,72.11,0,0,0,7.59.34c9.64,0,27.06-1.42,44.22-9.88a73.61,73.61,0,0,1,16.33,46.32V187A74,74,0,0,1,261,260.76c1.93.15,3.89.23,5.86.23a74,74,0,0,0,73.95-74V121.58A73.71,73.71,0,0,0,319.12,69.29Z"/><g class="cls-12"><ellipse class="cls-10" cx="308.2" cy="81.62" rx="3.19" ry="2.43"/><ellipse class="cls-10" cx="313.23" cy="84.31" rx="1.3" ry="0.99"/><ellipse class="cls-10" cx="303.75" cy="85.3" rx="1.64" ry="1.25"/></g><path class="cls-7" d="M340.37,103.69a1.49,1.49,0,0,1-1.46-1.19c-4.58-21.43-16.38-31.21-16.5-31.31a1.5,1.5,0,0,1,1.89-2.33c.52.42,12.74,10.55,17.54,33a1.5,1.5,0,0,1-1.15,1.78A1.17,1.17,0,0,1,340.37,103.69Z"/><path class="cls-6" d="M251,41.43a1.12,1.12,0,0,1-1-.67c-2.79-6.53-9.86-11.35-18-12.29a32.69,32.69,0,0,0-11,.72,1.12,1.12,0,0,1-.5-2.18,34.84,34.84,0,0,1,11.79-.76c8.92,1,16.7,6.38,19.8,13.62a1.12,1.12,0,0,1-1,1.56Z"/><path class="cls-6" d="M209,33.57a1.12,1.12,0,0,1-.5-2.12,58.65,58.65,0,0,1,5.65-2.51,1.12,1.12,0,1,1,.79,2.09,57.64,57.64,0,0,0-5.43,2.41A1,1,0,0,1,209,33.57Z"/><path class="cls-6" d="M287.54,23.33a1.11,1.11,0,0,1-.87-.41c-9.31-11.22-29.6-12.59-29.8-12.61a1.11,1.11,0,0,1-1.05-1.18A1.12,1.12,0,0,1,257,8.08c.87.05,21.47,1.45,31.4,13.41a1.13,1.13,0,0,1-.86,1.84Z"/><g class="cls-13"><path class="cls-2" d="M275.7,39.34a10.53,10.53,0,0,0-3.12-3.15,3.63,3.63,0,0,0-4.17.24,3.94,3.94,0,0,0-1,2.09,6.8,6.8,0,0,0,.49,4c.74,1.66,2.13,3,2.84,4.65.36.87.52,1.81.92,2.66a5.38,5.38,0,0,0,10-.51c.58-1.68.49-3.87,2-4.75a3.71,3.71,0,0,1,2.33-.29c1.4.18,2.77.59,4.17.66A4.63,4.63,0,0,0,294,43.53a5,5,0,0,0,.91-2c.71-3,.14-6.42-2.16-8.43s-6.46-1.76-7.93.91c-.72,1.3-1.06,3.22-2.54,3.41a5.43,5.43,0,0,1-1.9-.42,3.88,3.88,0,0,0-4.62,3.19"/></g><g class="cls-13"><path class="cls-2" d="M299.86,46.36a4.74,4.74,0,0,1-3,3.38,10.38,10.38,0,0,1-4.64.52,2,2,0,0,1-1.42-.5,1.5,1.5,0,0,1-.31-1,2.34,2.34,0,0,1,.72-1.7h0a1.14,1.14,0,0,1,.67-.32A7.93,7.93,0,0,0,296,44.89a3.26,3.26,0,0,1,.82-.66,2.52,2.52,0,0,1,1.13-.15,2.38,2.38,0,0,1,1.41.41A2,2,0,0,1,299.86,46.36Z"/></g><g class="cls-13"><path class="cls-2" d="M310.53,46c.52-.48.31-1.36-.11-1.93a8.27,8.27,0,0,1-1.28-1.69,2.27,2.27,0,0,1,1.14-2.7,3.38,3.38,0,0,1,3.09.12A6.91,6.91,0,0,1,315.68,42a7.77,7.77,0,0,0,1.39,1.73c1,.83,2.52,1,3.27,2.11.92,1.29.27,3.07-.4,4.5a8.46,8.46,0,0,1-1,1.76,6.68,6.68,0,0,1-4.53,2.16,4.51,4.51,0,0,1-3.53-.72,4.44,4.44,0,0,1-1.15-3.65,12.53,12.53,0,0,1,1.43-5.22"/></g><g class="cls-13"><path class="cls-2" d="M330.89,46.72a4.73,4.73,0,0,0-2.29-2.41,2.44,2.44,0,0,0-3,.83,4.61,4.61,0,0,0-.2,2.69.53.53,0,0,1,0,.13,6.83,6.83,0,0,1-1,3.87,2.8,2.8,0,0,0,1.52,4,3,3,0,0,0,3.79-1.29,13.18,13.18,0,0,0,.63-2.51c.32-1.19,1.09-2.28,1.07-3.51A4.42,4.42,0,0,0,330.89,46.72Z"/></g><g class="cls-13"><path class="cls-2" d="M191.67,58.15c1.51-.16,2.39-1.78,2.7-3.26s.35-3.11,1.25-4.32c1.33-1.78,4.21-1.86,5.95-.47a6.52,6.52,0,0,1,2.05,6,6.87,6.87,0,0,1-1.79,3.81c-2.42,2.46-6.43,2.15-9.83,1.46-1.14-.22-2.26-.92-2.27-2.08,0-3.79,4.09-2.42,4.25-3.19"/></g><g class="cls-13"><path class="cls-2" d="M221,39a4,4,0,0,0-1.76-.31,23.85,23.85,0,0,0-8.37,1.43A8.06,8.06,0,0,0,207.68,42a3.62,3.62,0,0,0-1,3.39,9.22,9.22,0,0,0,1.18,2.06,7.09,7.09,0,0,1,.93,2.57,5.38,5.38,0,0,0-1,1.67,3.91,3.91,0,0,0-.21,2.41,2.61,2.61,0,0,0,1.78,2.09c1.76.46,3.47-1,4.32-2.62s1.23-3.47,2.35-4.9A14.3,14.3,0,0,1,219.29,46a7.32,7.32,0,0,0,2.87-3.15A3,3,0,0,0,221,39Z"/></g><circle class="cls-14" cx="282.03" cy="64.1" r="3.16"/><circle class="cls-14" cx="288.14" cy="68.71" r="2.09"/><circle class="cls-14" cx="275.95" cy="60.94" r="1.53"/><circle class="cls-14" cx="272.89" cy="64.1" r="0.7"/><circle class="cls-14" cx="288.14" cy="62.77" r="1.33"/><circle class="cls-14" cx="272.89" cy="70.03" r="2.88"/><path class="cls-14" d="M224.92,72.08s7.06-6.54,5.31-15.77a18.19,18.19,0,0,1,6.07,18.91"/><path class="cls-14" d="M247.48,75.21a51.92,51.92,0,0,0,2.05-28s9.31,11,8.58,32.52"/><path class="cls-14" d="M255.63,77.83c3.86-1.6,6.42-9,6.3-14.34A17.3,17.3,0,0,1,265,79.76"/><path class="cls-14" d="M234.33,74.91c2.93-1.21,4.88-6.85,4.79-10.9a13.19,13.19,0,0,1,2.35,12.37"/><path class="cls-14" d="M239.24,75.1c2.16-.89,3.6-5,3.53-8a9.71,9.71,0,0,1,1.73,9.11"/><path class="cls-14" d="M243.23,76.15c2.16-.89,3.6-5.05,3.53-8a9.71,9.71,0,0,1,1.73,9.11"/><circle class="cls-6" cx="263.38" cy="43.56" r="1.86"/><path class="cls-15" d="M315.18,243.39a74.19,74.19,0,0,1-98.63-1.49l9.38-27.49c1.73-5.89,6.63-11.08,12.77-12.19h56.13c6.11,1.1,11,6.26,12.78,12.19Z"/><path class="cls-4" d="M256.82,212h17.82a18.49,18.49,0,0,1,18.66,18.31h0v1.59a6.38,6.38,0,0,1-6.43,6.32H244.6a6.38,6.38,0,0,1-6.43-6.32h0v-1.59A18.5,18.5,0,0,1,256.82,212Z"/><path class="cls-6" d="M252.11,226.37a4.83,4.83,0,0,1-3.71-1.73,2,2,0,1,1,3.08-2.55.8.8,0,0,0,.86.25,65.27,65.27,0,0,1,26.71-3.24.8.8,0,0,0,.79-.42l.66-1.21a2,2,0,1,1,3.52,1.91l-.66,1.21a4.81,4.81,0,0,1-4.65,2.5,61.38,61.38,0,0,0-25.09,3A5,5,0,0,1,252.11,226.37Z"/><path class="cls-16" d="M221.54,140.5a1.75,1.75,0,0,1-.81-3.3,29.65,29.65,0,0,1,26.39-.17,1.75,1.75,0,0,1-1.57,3.13,26.17,26.17,0,0,0-23.2.14A1.76,1.76,0,0,1,221.54,140.5Z"/><path class="cls-16" d="M284.54,140.5a1.75,1.75,0,0,1-.81-3.3,29.65,29.65,0,0,1,26.39-.17,1.75,1.75,0,1,1-1.57,3.13,26.17,26.17,0,0,0-23.2.14A1.76,1.76,0,0,1,284.54,140.5Z"/><path class="cls-2" d="M209.31,145.65a4.84,4.84,0,0,1-3.07-8.36c.77-.72,19-17.43,50.07-5a4.86,4.86,0,0,1-3.62,9c-25-10.06-39.23,2.52-39.83,3.06A4.9,4.9,0,0,1,209.31,145.65Z"/><path class="cls-14" d="M258,137.73a4.87,4.87,0,0,1-6.32,2.69c-25-10.06-39.23,2.52-39.82,3.06a4.86,4.86,0,0,1-7.82-5.32,4.94,4.94,0,0,0,1,1.53,4.82,4.82,0,0,0,3.3,1.54,4.89,4.89,0,0,0,3.55-1.26c.59-.54,14.78-13.12,39.82-3.06a4.86,4.86,0,0,0,6.32-2.7h0A4.86,4.86,0,0,1,258,137.73Z"/><path class="cls-2" d="M321.25,145.64a4.86,4.86,0,0,0,3.07-8.37c-.76-.71-19.05-17.43-50.07-5a4.86,4.86,0,0,0,3.62,9c25-10.06,39.24,2.52,39.83,3.06A5,5,0,0,0,321.25,145.64Z"/><path class="cls-14" d="M272.58,137.71a4.86,4.86,0,0,0,6.32,2.69c25-10.06,39.23,2.52,39.82,3.06a4.86,4.86,0,0,0,7.82-5.32,5.06,5.06,0,0,1-1,1.53,4.9,4.9,0,0,1-6.85.29c-.59-.54-14.78-13.12-39.82-3.06a4.86,4.86,0,0,1-6.32-2.7h0A4.83,4.83,0,0,0,272.58,137.71Z"/><path class="cls-6" d="M183.74,172.34a1.48,1.48,0,0,1-.93-.32,1.5,1.5,0,0,1-.26-2.1,17.56,17.56,0,0,1,10-6,1.5,1.5,0,1,1,.7,2.91,14.42,14.42,0,0,0-8.29,5A1.53,1.53,0,0,1,183.74,172.34Z"/><path class="cls-6" d="M350.35,172.34a1.5,1.5,0,0,1-1.19-.57,14.42,14.42,0,0,0-8.29-5,1.5,1.5,0,0,1,.71-2.91,17.57,17.57,0,0,1,9.95,6,1.5,1.5,0,0,1-.26,2.1A1.45,1.45,0,0,1,350.35,172.34Z"/><path class="cls-16" d="M223.64,255.6a1,1,0,0,1-.87-1.5l2.09-3.63a1,1,0,0,1,1.74,1l-2.09,3.63A1,1,0,0,1,223.64,255.6Z"/><path class="cls-16" d="M236.68,255.29a1,1,0,0,1-.5-.14,1,1,0,0,1-.37-1.36l2.09-3.63a1,1,0,0,1,1.74,1l-2.09,3.63A1,1,0,0,1,236.68,255.29Z"/><path class="cls-16" d="M220.81,244.08a1,1,0,0,1-.49-.13,1,1,0,0,1-.37-1.37L222,239a1,1,0,1,1,1.74,1l-2.09,3.63A1,1,0,0,1,220.81,244.08Z"/><path class="cls-16" d="M234.28,221.38a1,1,0,0,1-.49-.14,1,1,0,0,1-.37-1.36l2.08-3.63a1,1,0,0,1,1.74,1l-2.09,3.63A1,1,0,0,1,234.28,221.38Z"/><path class="cls-16" d="M224.4,228.2a1,1,0,0,1-.87-1.5l2.09-3.63a1,1,0,1,1,1.73,1l-2.09,3.63A1,1,0,0,1,224.4,228.2Z"/><path class="cls-16" d="M228.24,235.72a1,1,0,0,1-.5-.13,1,1,0,0,1-.37-1.36l2.09-3.63a1,1,0,1,1,1.73,1l-2.08,3.63A1,1,0,0,1,228.24,235.72Z"/><path class="cls-16" d="M234.28,244.64a1,1,0,0,1-.49-.14,1,1,0,0,1-.37-1.36l2.08-3.63a1,1,0,0,1,1.74,1l-2.09,3.63A1,1,0,0,1,234.28,244.64Z"/><path class="cls-16" d="M309.58,255.6a1,1,0,0,1-.87-.5l-2.09-3.63a1,1,0,1,1,1.73-1l2.09,3.63a1,1,0,0,1-.37,1.37A1,1,0,0,1,309.58,255.6Z"/><path class="cls-16" d="M298,259.14a1,1,0,0,1-.87-.5L295,255a1,1,0,1,1,1.73-1l2.09,3.63a1,1,0,0,1-.37,1.37A1,1,0,0,1,298,259.14Z"/><path class="cls-16" d="M312.4,244.08a1,1,0,0,1-.86-.5L309.45,240a1,1,0,1,1,1.73-1l2.09,3.63a1,1,0,0,1-.87,1.5Z"/><path class="cls-16" d="M296.12,219.56a1,1,0,0,1-.87-.5l-2.09-3.63a1,1,0,0,1,1.74-1l2.09,3.63a1,1,0,0,1-.87,1.5Z"/><path class="cls-16" d="M308.82,228.2a1,1,0,0,1-.87-.5l-2.09-3.63a1,1,0,1,1,1.74-1l2.09,3.63a1,1,0,0,1-.87,1.5Z"/><path class="cls-16" d="M302.05,233.91a1,1,0,0,1-.87-.5l-2.09-3.63a1,1,0,1,1,1.74-1l2.09,3.63a1,1,0,0,1-.87,1.5Z"/><path class="cls-16" d="M297.16,244.08a1,1,0,0,1-.87-.5L294.21,240a1,1,0,1,1,1.73-1l2.09,3.63a1,1,0,0,1-.87,1.5Z"/><path class="cls-16" d="M244.18,263.89a1,1,0,0,1-1-1v-5.21a1,1,0,0,1,2,0v5.21A1,1,0,0,1,244.18,263.89Z"/><path class="cls-16" d="M288.07,263.89a1,1,0,0,1-1-1v-5.21a1,1,0,0,1,2,0v5.21A1,1,0,0,1,288.07,263.89Z"/><path class="cls-16" d="M251.8,252.09a1,1,0,0,1-1-1v-5.21a1,1,0,0,1,2,0v5.21A1,1,0,0,1,251.8,252.09Z"/><path class="cls-16" d="M278.86,251.29a1,1,0,0,1-1-1v-5.21a1,1,0,0,1,2,0v5.21A1,1,0,0,1,278.86,251.29Z"/><path class="cls-16" d="M287.26,243.68a1,1,0,0,1-1-1v-2.2a1,1,0,0,1,2,0v2.2A1,1,0,0,1,287.26,243.68Z"/><path class="cls-16" d="M261.07,254.1a1,1,0,0,1-1-1v-2.21a1,1,0,0,1,2,0v2.21A1,1,0,0,1,261.07,254.1Z"/><path class="cls-16" d="M262.17,266.51a1,1,0,0,1-1-1V260.3a1,1,0,0,1,2,0v5.21A1,1,0,0,1,262.17,266.51Z"/><path class="cls-16" d="M267.22,246.68a1,1,0,0,1-1-1v-3.2a1,1,0,0,1,2,0v3.2A1,1,0,0,1,267.22,246.68Z"/><path class="cls-8" d="M268.35,200.45a2,2,0,0,1-1.89-1.34,45.69,45.69,0,0,1-3-13.82V173.78a2,2,0,1,1,4,0v11.44a42.13,42.13,0,0,0,2.75,12.57,2,2,0,0,1-1.23,2.55A1.91,1.91,0,0,1,268.35,200.45Z"/><path class="cls-6" d="M321.05,147.14a6.44,6.44,0,0,1-4.37-1.71c-.56-.51-14.06-12.5-38.25-2.77a6.36,6.36,0,0,1-4.83-11.74c31.9-12.79,50.95,4.51,51.74,5.26a6.35,6.35,0,0,1-4,11h-.28Zm.2-1.5h0Zm-24.76-9.77c14,0,21.78,6.95,22.22,7.35a3.48,3.48,0,0,0,2.46.92,3.35,3.35,0,0,0,2.11-5.78c-.72-.68-18.41-16.75-48.47-4.7a3.3,3.3,0,0,0-1.64,1.88,3.37,3.37,0,0,0,4.23,4.31A50.94,50.94,0,0,1,296.49,135.87Z"/><path class="cls-8" d="M208.58,147.14h-.32a6.34,6.34,0,0,1-4-10.94c.8-.75,19.82-18,51.66-5.31a6.36,6.36,0,0,1-4.65,11.82c-24.13-9.71-37.78,2.24-38.35,2.75A6.37,6.37,0,0,1,208.58,147.14Zm-.16-3a3.37,3.37,0,0,0,2.45-.9c.64-.58,15.66-13.72,41.41-3.36a3.36,3.36,0,0,0,2.42-6.25c-30-12-47.67,4.05-48.4,4.74a3.27,3.27,0,0,0-1,2.24A3.35,3.35,0,0,0,208.42,144.14Z"/><path class="cls-8" d="M266.37,262.64A76.38,76.38,0,0,1,201,225.43a2,2,0,1,1,3.44-2.05,72,72,0,0,0,133.86-36.69V121.23a71.45,71.45,0,0,0-21.08-50.87c-.44-.44-.86-.86-1.27-1.25-13.61,7.87-31.15,12.18-49.6,12.18s-36-4.32-49.59-12.18a72.1,72.1,0,0,0-22.36,52.12v65.46a73,73,0,0,0,1.16,13,2,2,0,1,1-3.93.71,76.26,76.26,0,0,1-1.23-13.69V121.23a76.13,76.13,0,0,1,24.74-56.08,2,2,0,0,1,2.39-.24c13.15,8,30.49,12.38,48.82,12.38S302,72.9,315.2,64.92a2,2,0,0,1,2.38.23c.79.72,1.61,1.49,2.49,2.38a75.41,75.41,0,0,1,22.25,53.7v65.46A76,76,0,0,1,266.37,262.64Z"/><ellipse class="cls-2" cx="301.48" cy="31.86" rx="3.92" ry="1.88"/><circle class="cls-2" cx="306.98" cy="35.83" r="1.58"/><ellipse class="cls-3" cx="204.29" cy="205.56" rx="3.37" ry="5.47" transform="translate(-57.15 80.5) rotate(-19.61)"/><circle class="cls-17" cx="207.37" cy="197.04" r="1.64"/><circle class="cls-18" cx="212.37" cy="206.58" r="1.97"/><path class="cls-8" d="M198.75,218.32a2,2,0,0,1-1.71-1,25.94,25.94,0,0,1-1.92-5.33,2,2,0,0,1,3.88-1,22,22,0,0,0,1.47,4.25,2,2,0,0,1-.69,2.74A2,2,0,0,1,198.75,218.32Z"/><path class="cls-3" d="M252.12,166.57a19.13,19.13,0,0,0-38.26,0l.3,7.34h37.66"/><circle class="cls-8" cx="233.75" cy="159.67" r="11.11"/><circle class="cls-3" cx="226.35" cy="160.95" r="4.95"/><path class="cls-8" d="M252,174.29H214.3a1.5,1.5,0,0,1,0-3H252a1.5,1.5,0,0,1,0,3Z"/><path class="cls-8" d="M252.26,167a1.5,1.5,0,0,1-1.5-1.5,17.63,17.63,0,0,0-35.26,0,1.5,1.5,0,1,1-3,0,20.63,20.63,0,0,1,41.26,0A1.51,1.51,0,0,1,252.26,167Z"/><path class="cls-3" d="M277.06,166.57a19.13,19.13,0,0,1,38.26,0l-.31,7.34H277.36"/><path class="cls-8" d="M314.88,174.29H277.22a1.5,1.5,0,0,1,0-3h37.66a1.5,1.5,0,0,1,0,3Z"/><path class="cls-8" d="M315.18,167a1.5,1.5,0,0,1-1.5-1.5,17.63,17.63,0,1,0-35.26,0,1.5,1.5,0,0,1-3,0,20.63,20.63,0,1,1,41.26,0A1.5,1.5,0,0,1,315.18,167Z"/><circle class="cls-8" cx="296.66" cy="159.67" r="11.11"/><circle class="cls-3" cx="289.27" cy="160.95" r="4.95"/><path class="cls-8" d="M206.44,65.9a.52.52,0,0,1-.41-.21.5.5,0,0,1,.12-.7l6.56-4.66a.51.51,0,0,1,.7.11.5.5,0,0,1-.12.7l-6.56,4.66A.46.46,0,0,1,206.44,65.9Z"/><path class="cls-8" d="M209.81,66.58a.48.48,0,0,1-.4-.21.49.49,0,0,1,.12-.69l3.18-2.27a.5.5,0,0,1,.7.12.49.49,0,0,1-.12.69l-3.19,2.27A.48.48,0,0,1,209.81,66.58Z"/><path class="cls-8" d="M250.06,29.16a2,2,0,0,1-1.45-.62c-.17-.18-16.9-17.6-36.58-17.6h-.59a2,2,0,0,1-.82-3.84,104.33,104.33,0,0,1,30-6.81c22.59-1.77,42.18,4.49,56.69,18.07,1.27,1.19,3.41,1.26,5.9,1.35a22,22,0,0,1,5.6.68,2,2,0,1,1-1.15,3.83,19.14,19.14,0,0,0-4.59-.51c-2.87-.1-6.13-.21-8.5-2.43C269.82-1.86,236.38,3.58,220.82,7.91c17.19,3.78,30.06,17.21,30.69,17.88a2,2,0,0,1-1.45,3.37Z"/><path class="cls-3" d="M187.2,45.43a2,2,0,0,1-1.61-3.18A61.59,61.59,0,0,1,215.52,22a2,2,0,1,1,1.18,3.82,58.5,58.5,0,0,0-27.88,18.76A2,2,0,0,1,187.2,45.43Z"/><circle class="cls-3" cx="193.52" cy="39.77" r="1.04"/><ellipse class="cls-2" cx="199.78" cy="43.56" rx="3.05" ry="1.66" transform="translate(10.73 121.48) rotate(-34.7)"/><ellipse class="cls-2" cx="243.7" cy="14.58" rx="1.5" ry="3.43" transform="translate(117.92 223.82) rotate(-62.41)"/><circle class="cls-2" cx="249.91" cy="15.67" r="1.09"/><path class="cls-3" d="M173.84,85.12h-.05a3.5,3.5,0,0,1-3.46-3.54c0-.64.26-15.79,6.36-28.76a3.5,3.5,0,1,1,6.33,3c-5.46,11.6-5.68,25.72-5.69,25.86A3.49,3.49,0,0,1,173.84,85.12Z"/><path class="cls-8" d="M192,150.37a2,2,0,0,1-1.67-.88c-5.76-8.55-14.09-27.88-7.59-63.32-2.76,2.62-6.15,6.24-8,9.68A2,2,0,0,1,171,95.3,76.69,76.69,0,0,1,172,66.19c3.3-14.49,12.66-34,38.53-44.55,30-12.27,46.86,8.51,51.31,15.17A2,2,0,0,1,258.48,39c-5.15-7.73-20-24.52-46.46-13.7-19.5,8-31.66,22-36.15,41.74a75.84,75.84,0,0,0-1.56,22.29,72.44,72.44,0,0,1,10.32-10.19,2,2,0,0,1,3.2,2c-8.26,37.73.1,57.59,5.82,66.07a2,2,0,0,1-1.65,3.12Z"/><path class="cls-6" d="M344.56,73.8a1.13,1.13,0,0,1-1.11-1C341.64,50,327.39,40.38,327.24,40.28a1.12,1.12,0,0,1-.32-1.55,1.15,1.15,0,0,1,1.56-.32c.62.42,15.3,10.36,17.2,34.18a1.12,1.12,0,0,1-1,1.2Z"/><path class="cls-19" d="M294.2,349q21.12.44,42.25-.48a2.56,2.56,0,0,0,3-3.45,110.25,110.25,0,0,0-9-32.13c-5.18-11.38-12.54-22.1-22.86-29.17s-23.9-10.06-35.67-5.83"/><path class="cls-3" d="M237.07,349.16q-21.12.43-42.25-.49a2.56,2.56,0,0,1-3-3.45,109.88,109.88,0,0,1,9-32.12c5.18-11.39,12.54-22.11,22.86-29.18s23.9-10.06,35.67-5.83"/><path class="cls-20" d="M242.51,349.16q-21.13.43-42.25-.49a3.43,3.43,0,0,1-2.55-.83,3.36,3.36,0,0,1-.41-2.62,109.88,109.88,0,0,1,9-32.12c5.18-11.39,12.54-22.11,22.86-29.18s23.89-10.06,35.67-5.83"/><path class="cls-21" d="M314.82,312.54V350q-3.48,0-7,0V312.54a38.87,38.87,0,0,0-22.75-35.68,39.74,39.74,0,0,1,9.61,1.37A38.73,38.73,0,0,1,314.82,312.54Z"/><path class="cls-8" d="M222.21,350.67c-9.63,0-19.31-.21-28.88-.62a4,4,0,0,1-4.38-5.14,110.93,110.93,0,0,1,9.15-32.56c6-13.27,13.9-23.3,23.38-29.79,11.4-7.81,25.58-10.12,37-6a1.5,1.5,0,0,1-1,2.82c-10.55-3.79-23.7-1.62-34.32,5.65-9,6.19-16.53,15.79-22.34,28.56a108,108,0,0,0-8.9,31.69c0,.3-.15,1.21.06,1.46s1.13.3,1.47.31c14,.61,28.16.77,42.15.48h0a1.5,1.5,0,0,1,0,3Q229,350.68,222.21,350.67Z"/><path class="cls-8" d="M309.71,350.67q-6.75,0-13.46-.14a1.5,1.5,0,0,1,0-3h0c14,.29,28.17.13,42.15-.48.35,0,1.25-.05,1.47-.31s.1-1.16.07-1.46a108.27,108.27,0,0,0-8.91-31.69c-5.8-12.77-13.32-22.37-22.34-28.56-10.62-7.27-23.77-9.44-34.31-5.65a1.5,1.5,0,1,1-1-2.82c11.44-4.11,25.63-1.81,37,6,9.48,6.49,17.35,16.52,23.38,29.79A110.93,110.93,0,0,1,343,344.91a4,4,0,0,1-4.38,5.14C329,350.46,319.35,350.67,309.71,350.67Z"/><path class="cls-19" d="M306.73,421.61H223V311.71c0-23.11,18.74-37.85,41.85-37.85v-2c23.11,0,41.85,16.74,41.85,39.85Z"/><path class="cls-20" d="M265.28,419.42H225.6V309.52a35.59,35.59,0,0,1,11-26.46,36.16,36.16,0,0,1,5.21-4.14C305.66,256.2,284.51,360.25,265.28,419.42Z"/><path class="cls-3" d="M271.86,272.36v1.51c-23.12,0-41.85,14.73-41.85,37.84v109.9h-6.76V311.71c0-23.11,18.74-37.84,41.85-37.84v-2A47,47,0,0,1,271.86,272.36Z"/><path class="cls-8" d="M307,423h-83.7a1.5,1.5,0,0,1-1.5-1.5V311.71a43.11,43.11,0,0,1,24.14-38.86,1.5,1.5,0,1,1,1.33,2.68,40.15,40.15,0,0,0-22.47,36.18V420h80.7V311.71a40.2,40.2,0,0,0-22-35.95,1.5,1.5,0,0,1,1.36-2.68,43.2,43.2,0,0,1,23.66,38.63V421.5A1.5,1.5,0,0,1,307,423Z"/><path class="cls-20" d="M282.44,275.73c-.09,5.38-8.95,9.64-19.89,9.33s-19.63-4.75-19.53-10.13c0-2.49,1.89-4.63,4.94-6.28a34.62,34.62,0,0,0,29.73.57C280.64,271.06,282.49,273.29,282.44,275.73Z"/><path class="cls-8" d="M264.67,286.57h-1.16c-12.08-.35-21.11-5.36-21-11.66,0-2,1-5,5.73-7.57a1.53,1.53,0,0,1,1.41,0,30.29,30.29,0,0,0,14.11,3.46A29.61,29.61,0,0,0,278,267.87a1.5,1.5,0,0,1,1.45.07c3.63,2.26,5.52,5,5.46,7.82a7.66,7.66,0,0,1-2.62,5.39C278.78,284.53,272.09,286.57,264.67,286.57ZM249,270.36c-1.71,1-3.47,2.59-3.48,4.58-.07,3.92,7.17,8.3,18.07,8.62,7,.19,13.54-1.6,16.66-4.58a4.73,4.73,0,0,0,1.69-3.28h0c0-1.94-1.68-3.6-3.38-4.77a36.31,36.31,0,0,1-29.56-.57Z"/><ellipse class="cls-3" cx="231.04" cy="380.65" rx="3.57" ry="7.51"/><circle class="cls-3" cx="233.12" cy="370.05" r="1.84"/><circle class="cls-3" cx="236.14" cy="373.31" r="1.18"/><circle class="cls-3" cx="238.23" cy="369.13" r="0.92"/><ellipse class="cls-3" cx="235.22" cy="302.66" rx="3.66" ry="2.1" transform="translate(-126.09 430.67) rotate(-71.66)"/><circle class="cls-22" cx="239.44" cy="298.37" r="1.21"/><circle class="cls-23" cx="238.52" cy="312.72" r="3.31"/><circle class="cls-22" cx="241.83" cy="304.69" r="1.18"/><circle class="cls-22" cx="238.24" cy="306.79" r="0.91"/><path class="cls-24" d="M185.46,321.11H349.77c6.94,0,12.56,5.95,12.56,13.29V441.71c0,7.3-5.6,13.23-12.51,13.23H185.45c-5.9,0-10.69-5.06-10.69-11.3V332.42C174.76,326.18,179.55,321.11,185.46,321.11Z"/><path class="cls-25" d="M258.34,454.51H185.55c-5.91,0-10.69-5.06-10.69-11.3V332c0-6.25,4.79-11.31,10.7-11.31h48.86C219.48,343.81,185.16,411.17,258.34,454.51Z"/><path class="cls-26" d="M399.86,402.4h2.68V457h-1.72a6.45,6.45,0,0,1-6.45-6.45V407.89A5.49,5.49,0,0,1,399.86,402.4Z"/><rect class="cls-27" x="402.54" y="402.4" width="8.18" height="54.55"/><rect class="cls-28" x="410.72" y="402.4" width="10.27" height="54.55"/><path class="cls-29" d="M421,402.4h5.12a5.14,5.14,0,0,1,5.15,5.15v43.06a6.33,6.33,0,0,1-6.33,6.34H421Z"/><rect class="cls-30" x="394.37" y="444.14" width="8.17" height="10.4"/><rect class="cls-31" x="402.55" y="444.14" width="8.17" height="10.4"/><rect class="cls-32" x="410.72" y="444.14" width="10.27" height="10.4"/><rect class="cls-33" x="420.99" y="444.14" width="10.27" height="10.4"/><g class="cls-34"><path class="cls-35" d="M501.55,358.26h-.29a1.5,1.5,0,0,1,0-3h.29a1.5,1.5,0,0,1,0,3Z"/><path class="cls-35" d="M512.48,358.26h-6a1.5,1.5,0,0,1,0-3h3V340.2H462.72v15.06h27.19a1.5,1.5,0,1,1,0,3H459.72V337.2h52.76Z"/><path class="cls-35" d="M497.21,358.26h-2.67a1.5,1.5,0,1,1,0-3h2.67a1.5,1.5,0,1,1,0,3Z"/><path class="cls-35" d="M472.22,394.37h-12.5V373.31h37.14a1.5,1.5,0,0,1,0,3H462.72v15.06h9.5a1.5,1.5,0,0,1,0,3Z"/><path class="cls-35" d="M482,394.37h-5.41a1.5,1.5,0,0,1,0-3H482a1.5,1.5,0,0,1,0,3Z"/><path class="cls-35" d="M486.15,394.37H486a1.5,1.5,0,0,1,0-3h.11a1.5,1.5,0,0,1,0,3Z"/><path class="cls-35" d="M512.48,394.37H490.4a1.5,1.5,0,0,1,0-3h19.08V376.31h-6.62a1.5,1.5,0,0,1,0-3h9.67Z"/><path class="cls-35" d="M487.2,376.31H434.44V355.26H487.2Zm-49.76-3H484.2V358.26H437.44Z"/></g><g class="cls-34"><path class="cls-35" d="M102.87,319.25h-.29a1.5,1.5,0,1,1,0-3h.29a1.5,1.5,0,0,1,0,3Z"/><path class="cls-35" d="M113.8,319.25h-6a1.5,1.5,0,0,1,0-3h3V301.19H64v15.06H91.23a1.5,1.5,0,1,1,0,3H61V298.19H113.8Z"/><path class="cls-35" d="M98.53,319.25H95.86a1.5,1.5,0,0,1,0-3h2.67a1.5,1.5,0,0,1,0,3Z"/><path class="cls-35" d="M73.54,355.36H61V334.3H98.18a1.5,1.5,0,0,1,0,3H64v15.06h9.5a1.5,1.5,0,1,1,0,3Z"/><path class="cls-35" d="M83.34,355.36H77.93a1.5,1.5,0,0,1,0-3h5.41a1.5,1.5,0,1,1,0,3Z"/><path class="cls-35" d="M87.47,355.36h-.11a1.5,1.5,0,0,1,0-3h.11a1.5,1.5,0,1,1,0,3Z"/><path class="cls-35" d="M113.8,355.36H91.72a1.5,1.5,0,0,1,0-3H110.8V337.3h-6.62a1.5,1.5,0,0,1,0-3h9.67Z"/><path class="cls-35" d="M88.52,337.3H35.76V316.25H88.52Zm-49.76-3H85.52V319.25H38.76Z"/></g><path class="cls-36" d="M199.1,430.46l.27-.31-.24.64A1.84,1.84,0,0,1,199.1,430.46Z"/><rect class="cls-37" x="2" y="458.12" width="528.2" height="14.6" rx="4.47"/><path class="cls-38" d="M516.47,458.09c5.36.21,5.08,7.3-.27,7.3H92.47c-7.46,0-13.88,3.07-15.35,7.33H45.17c-1.7-4.29-8.32-7.36-15.89-7.36H10.8c-5.36,0-5.63-7.09-.28-7.3h505Z"/><path class="cls-36" d="M194.35,423.88l.32-.38c-.1.26-.19.51-.28.77A2.58,2.58,0,0,1,194.35,423.88Z"/><path class="cls-39" d="M363.22,334.13l-1,107.3c-.07,7.31-5.72,13.18-12.62,13.12l-8.18-.08c6.9.07,12.55-5.8,12.62-13.11l1-107.31c.07-7.34-5.5-13.33-12.44-13.39l8.18.07C357.72,320.8,363.28,326.79,363.22,334.13Z"/><circle class="cls-40" cx="315.31" cy="393.88" r="37.02"/><circle class="cls-3" cx="311.83" cy="391.71" r="37.02"/><path class="cls-41" d="M311.64,422.13H310a.54.54,0,0,1-.54-.54h0a.53.53,0,0,1,.55-.51h3.24a.55.55,0,1,1,.06,1.09C312.82,422.12,312.18,422.13,311.64,422.13Zm-4.86-.39h-.06a30.21,30.21,0,0,1-3.27-.71.54.54,0,1,1,.28-1c1,.28,2.08.51,3.14.69a.54.54,0,0,1-.09,1.07Zm9.76,0a.54.54,0,0,1-.59-.49.55.55,0,0,1,.5-.6h0a28.21,28.21,0,0,0,3.13-.69.55.55,0,0,1,.67.39h0a.52.52,0,0,1-.36.65h0a30.25,30.25,0,0,1-3.27.72ZM300.48,420a.34.34,0,0,1-.2,0,31.77,31.77,0,0,1-3-1.39.55.55,0,0,1-.27-.72.53.53,0,0,1,.72-.27h.07a31.74,31.74,0,0,0,2.91,1.33.55.55,0,0,1,.32.7.54.54,0,0,1-.52.35Zm22.35,0a.52.52,0,0,1-.51-.34.55.55,0,0,1,.3-.71h0a28.18,28.18,0,0,0,2.9-1.34.55.55,0,0,1,.76.17.54.54,0,0,1-.18.75H326a29.4,29.4,0,0,1-3,1.4h-.2Zm-28.12-3.06a.59.59,0,0,1-.31-.09,28.69,28.69,0,0,1-2.64-2,.55.55,0,0,1-.07-.77.55.55,0,0,1,.78-.07A26.85,26.85,0,0,0,295,416a.55.55,0,0,1,.14.76A.56.56,0,0,1,294.71,416.94Zm33.87,0a.55.55,0,0,1-.53-.57.54.54,0,0,1,.23-.43,31.72,31.72,0,0,0,2.55-1.94.54.54,0,0,1,.77.06h0a.55.55,0,0,1-.06.77h0a32.48,32.48,0,0,1-2.65,2,.64.64,0,0,1-.31.07Zm-38.84-4.19a.58.58,0,0,1-.41-.17c-.75-.8-1.47-1.65-2.15-2.53a.54.54,0,0,1,.22-.73.53.53,0,0,1,.6.05,30,30,0,0,0,2.08,2.43.55.55,0,0,1,0,.77.5.5,0,0,1-.38.15Zm43.82,0a.51.51,0,0,1-.38-.16.54.54,0,0,1,0-.76h0c.74-.79,1.44-1.61,2.09-2.46a.55.55,0,0,1,.76-.14h0a.55.55,0,0,1,.14.76h0a29.13,29.13,0,0,1-2.15,2.54.53.53,0,0,1-.41.15Zm-47.78-5.16a.54.54,0,0,1-.48-.26,30.33,30.33,0,0,1-1.56-2.93.55.55,0,0,1,1-.53.08.08,0,0,1,0,.07c.46,1,1,1.91,1.51,2.83a.56.56,0,0,1-.17.75.48.48,0,0,1-.29,0Zm51.73,0a.5.5,0,0,1-.29-.07.55.55,0,0,1-.19-.75h0a27.63,27.63,0,0,0,1.52-2.84.54.54,0,1,1,1,.4v.06a31.56,31.56,0,0,1-1.54,2.94.58.58,0,0,1-.47.24ZM283,401.69a.55.55,0,0,1-.54-.38,28.28,28.28,0,0,1-.86-3.25.54.54,0,0,1,.41-.65h0a.55.55,0,0,1,.65.41,30.28,30.28,0,0,0,.86,3.1.53.53,0,0,1-.34.68H283Zm57.23-.06h-.17a.55.55,0,0,1-.35-.69h0a30.28,30.28,0,0,0,.86-3.1.54.54,0,0,1,.63-.41h0a.55.55,0,0,1,.42.65h0a32.27,32.27,0,0,1-.89,3.2.53.53,0,0,1-.52.32Zm-58.63-6.34a.55.55,0,0,1-.55-.48,31,31,0,0,1-.19-3.34.55.55,0,0,1,.63-.46.53.53,0,0,1,.47.46,20.26,20.26,0,0,0,.17,3.21.53.53,0,0,1-.45.6h-.08Zm60-.06h0a.55.55,0,0,1-.49-.6h0a31.18,31.18,0,0,0,.17-3.2v-.12a.56.56,0,0,1,.54-.56h0a.56.56,0,0,1,.56.56h0v.12a30.64,30.64,0,0,1-.18,3.32.56.56,0,0,1-.6.44Zm-60-6.45h-.06a.56.56,0,0,1-.5-.6h0a28.06,28.06,0,0,1,.55-3.28.54.54,0,1,1,1.07.16v.08a27.91,27.91,0,0,0-.51,3.17.56.56,0,0,1-.55.45Zm60-.18a.55.55,0,0,1-.56-.48,28.36,28.36,0,0,0-.54-3.17.55.55,0,0,1,.42-.66h0a.57.57,0,0,1,.68.42c.23,1.09.41,2.18.54,3.28a.57.57,0,0,1-.49.6ZM283,382.39h-.18a.55.55,0,0,1-.34-.69,31.36,31.36,0,0,1,1.18-3.1.54.54,0,0,1,.7-.31.55.55,0,0,1,.32.7h0v.07a30.32,30.32,0,0,0-1.19,3,.52.52,0,0,1-.49.32Zm57.22-.16a.52.52,0,0,1-.5-.36c-.36-1-.75-2-1.19-3a.54.54,0,0,1,.13-.76.54.54,0,0,1,.76.12,1.19,1.19,0,0,1,.08.16,27.29,27.29,0,0,1,1.24,3.09.55.55,0,0,1-.34.7Zm-54.49-5.75a.52.52,0,0,1-.29-.09.53.53,0,0,1-.17-.74c.57-.94,1.19-1.85,1.85-2.73a.55.55,0,0,1,.76-.14.56.56,0,0,1,.14.77h0a28.05,28.05,0,0,0-1.8,2.65.57.57,0,0,1-.47.22Zm51.73-.16a.49.49,0,0,1-.46-.26,30.13,30.13,0,0,0-1.82-2.64.56.56,0,0,1,.1-.77.54.54,0,0,1,.77.09h0c.67.88,1.3,1.79,1.88,2.73a.57.57,0,0,1-.18.76h0a.53.53,0,0,1-.28.07Zm-47.8-5a.57.57,0,0,1-.36-.16.55.55,0,0,1,0-.77h0a28.35,28.35,0,0,1,2.36-2.29.53.53,0,0,1,.75,0l0,0a.57.57,0,0,1,0,.77,27.42,27.42,0,0,0-2.36,2.21.57.57,0,0,1-.43.15Zm43.83-.13a.56.56,0,0,1-.39-.17,30.72,30.72,0,0,0-2.37-2.19.55.55,0,1,1,.71-.83,28.29,28.29,0,0,1,2.37,2.28.56.56,0,0,1,0,.78.59.59,0,0,1-.41.1ZM294.63,367a.52.52,0,0,1-.54-.52v0a.52.52,0,0,1,.22-.45,29.53,29.53,0,0,1,2.85-1.72.54.54,0,0,1,.75.17.55.55,0,0,1-.17.75h-.07a31.51,31.51,0,0,0-2.73,1.66.42.42,0,0,1-.31.07Zm33.84-.09a.58.58,0,0,1-.29-.12,26.25,26.25,0,0,0-2.75-1.64.56.56,0,0,1-.25-.74.54.54,0,0,1,.73-.24h0a30.42,30.42,0,0,1,2.86,1.71.55.55,0,0,1,.15.76h0a.56.56,0,0,1-.43.21Zm-28.12-3a.56.56,0,0,1-.56-.54.55.55,0,0,1,.36-.51,29.2,29.2,0,0,1,3.14-1.1.54.54,0,0,1,.67.37h0a.53.53,0,0,1-.35.66h0a29.43,29.43,0,0,0-3,1h-.18Zm22.34-.07h-.19c-1-.39-2-.73-3.05-1a.54.54,0,1,1,.28-1.05,29.24,29.24,0,0,1,3.16,1.05.55.55,0,0,1-.2,1.06Zm-16.05-1.69a.53.53,0,0,1-.59-.49v0a.55.55,0,0,1,.49-.59,32.91,32.91,0,0,1,3.28-.37.56.56,0,0,1,.51.6.54.54,0,0,1-.44.5,28.3,28.3,0,0,0-3.19.36Zm9.76,0h0a24.14,24.14,0,0,0-3.18-.33.56.56,0,0,1-.52-.58h0a.54.54,0,0,1,.55-.52h0a30.68,30.68,0,0,1,3.31.34.55.55,0,0,1,.49.59.53.53,0,0,1-.57.51h0Z"/><path class="cls-16" d="M327.82,397.6a.37.37,0,0,1-.32-.17,3,3,0,0,0-2.61-1.39,13.61,13.61,0,0,1-1.55-.28,13.25,13.25,0,0,0-2.24-.37.4.4,0,0,1-.35-.42.38.38,0,0,1,.42-.35h0a13.36,13.36,0,0,1,2.36.39,14.81,14.81,0,0,0,1.48.27,3.7,3.7,0,0,1,3.13,1.72.39.39,0,0,1-.11.54.37.37,0,0,1-.21.06Z"/><path class="cls-16" d="M331.88,401.43a.35.35,0,0,1-.32-.17c-.73-1.11-3.73-2.4-8.22-3.58a15.62,15.62,0,0,0-2.24-.37.39.39,0,0,1-.33-.44.38.38,0,0,1,.4-.33,15.49,15.49,0,0,1,2.36.39c3.36.87,7.61,2.24,8.68,3.89a.4.4,0,0,1-.1.54h0A.34.34,0,0,1,331.88,401.43Z"/><path class="cls-16" d="M327.05,402.27H327a5.63,5.63,0,0,1-3.32-1.73,7.26,7.26,0,0,0-1.61-1.2,15.45,15.45,0,0,0-2.11-.84.39.39,0,0,1-.25-.48h0a.4.4,0,0,1,.49-.25,15.29,15.29,0,0,1,2.23.9A7.75,7.75,0,0,1,324.2,400a4.75,4.75,0,0,0,2.92,1.53.39.39,0,0,1,.33.44.4.4,0,0,1-.39.33Z"/><path class="cls-16" d="M296.16,397.6a.37.37,0,0,0,.32-.17,3,3,0,0,1,2.6-1.39,13.39,13.39,0,0,0,1.56-.28,13.25,13.25,0,0,1,2.24-.37.4.4,0,0,0,.35-.42.38.38,0,0,0-.42-.35h0a13.36,13.36,0,0,0-2.36.39,14.81,14.81,0,0,1-1.48.27,3.73,3.73,0,0,0-3.14,1.72.41.41,0,0,0,.11.54.43.43,0,0,0,.22.06Z"/><path class="cls-16" d="M292.1,401.43a.35.35,0,0,0,.32-.17c.73-1.11,3.73-2.4,8.22-3.58a15.62,15.62,0,0,1,2.24-.37.39.39,0,0,0,.33-.44.38.38,0,0,0-.4-.33,15.49,15.49,0,0,0-2.36.39c-3.36.87-7.61,2.24-8.68,3.89a.4.4,0,0,0,.1.54h0A.34.34,0,0,0,292.1,401.43Z"/><path class="cls-16" d="M296.93,402.27H297a5.63,5.63,0,0,0,3.33-1.73,7,7,0,0,1,1.61-1.2,15.45,15.45,0,0,1,2.11-.84.39.39,0,0,0,.25-.48h0a.4.4,0,0,0-.49-.25,15.41,15.41,0,0,0-2.24.9,8,8,0,0,0-1.79,1.32,4.7,4.7,0,0,1-2.91,1.53.39.39,0,0,0-.33.44.4.4,0,0,0,.39.33Z"/><path class="cls-16" d="M312.88,407.58h-2.06a13.45,13.45,0,0,1-12.66-18,19,19,0,0,0-3-4.94l-.56-.67a.89.89,0,0,1-.19-.8.92.92,0,0,1,.53-.62l.81-.33a12.32,12.32,0,0,1,9.14-.2,12.6,12.6,0,0,1,10.81-1.11c.25-.18.5-.36.78-.53a11.93,11.93,0,0,1,11.38-1l.81.33a.9.9,0,0,1,.35,1.42l-.56.67a18.89,18.89,0,0,0-3.54,6.23,13.45,13.45,0,0,1-12,19.55Zm-16.14-23.84a20.77,20.77,0,0,1,3.23,5.47,1,1,0,0,1,0,.67,11.64,11.64,0,0,0,10.85,15.89h2.05a11.65,11.65,0,0,0,10.24-17.23.9.9,0,0,1-.06-.7,20.42,20.42,0,0,1,3.75-6.92,10.14,10.14,0,0,0-9.37.95c-.3.19-.56.37-.8.55l0,0-.06,0-.2.14a.91.91,0,0,1-.87.12,10.85,10.85,0,0,0-10,1,.9.9,0,0,1-.91.11A10.36,10.36,0,0,0,296.74,383.74Z"/><path class="cls-8" d="M284.48,322.37h-6.42a1.5,1.5,0,0,1,0-3h6.42a1.5,1.5,0,0,1,0,3Z"/><path class="cls-8" d="M349.11,456.19H175.3a12.82,12.82,0,0,1-12.8-12.8V332.18a12.83,12.83,0,0,1,12.81-12.81h91.2a1.5,1.5,0,0,1,0,3h-91.2a9.83,9.83,0,0,0-9.81,9.81V443.39a9.81,9.81,0,0,0,9.8,9.8H349.11a11.74,11.74,0,0,0,11.72-11.72V406.06a1.5,1.5,0,0,1,3,0v35.41A14.73,14.73,0,0,1,349.11,456.19Z"/><path class="cls-8" d="M362.33,397.25a1.5,1.5,0,0,1-1.5-1.5V372.17a1.5,1.5,0,0,1,3,0v23.58A1.5,1.5,0,0,1,362.33,397.25Z"/><path class="cls-8" d="M362.33,363.3a1.5,1.5,0,0,1-1.5-1.5V334.15a11.79,11.79,0,0,0-11.78-11.78H297.12a1.5,1.5,0,0,1,0-3h51.93a14.8,14.8,0,0,1,14.78,14.78V361.8A1.5,1.5,0,0,1,362.33,363.3Z"/><ellipse class="cls-3" cx="181.01" cy="425.94" rx="3.36" ry="6.52"/><ellipse class="cls-3" cx="219.86" cy="387.78" rx="3.36" ry="6.52"/><circle class="cls-3" cx="180.27" cy="414.03" r="1.2"/><circle class="cls-42" cx="187.73" cy="416.52" r="3.39"/><circle class="cls-25" cx="223.25" cy="401.43" r="3.39"/><path class="cls-8" d="M171.48,331.86a.52.52,0,0,1-.41-.22.5.5,0,0,1,.12-.69l6.57-4.67a.52.52,0,0,1,.7.12.51.51,0,0,1-.12.7l-6.57,4.66A.46.46,0,0,1,171.48,331.86Z"/><path class="cls-8" d="M174.86,332.54a.49.49,0,0,1-.41-.21.5.5,0,0,1,.12-.7l3.19-2.26a.5.5,0,1,1,.58.81l-3.19,2.27A.52.52,0,0,1,174.86,332.54Z"/><path class="cls-8" d="M427.17,412.84a.48.48,0,0,1-.41-.21l-4.67-6.57a.5.5,0,0,1,.12-.69.51.51,0,0,1,.7.11l4.66,6.57a.5.5,0,0,1-.12.7A.47.47,0,0,1,427.17,412.84Z"/><path class="cls-8" d="M424.08,412.84a.49.49,0,0,1-.41-.21l-2.26-3.19a.5.5,0,1,1,.81-.58l2.27,3.19a.5.5,0,0,1-.12.7A.52.52,0,0,1,424.08,412.84Z"/><path class="cls-3" d="M395,413.14h.88a3.21,3.21,0,0,1,3.21,3.21v17.83a3.21,3.21,0,0,1-3.21,3.21H395a0,0,0,0,1,0,0V413.14A0,0,0,0,1,395,413.14Z"/><path class="cls-8" d="M425,457.54H400.66a7.8,7.8,0,0,1-7.79-7.78V404.23a3.16,3.16,0,0,1,3.16-3.15h33.58a3.15,3.15,0,0,1,3.15,3.15v45.53A7.79,7.79,0,0,1,425,457.54Zm-29-53.46a.16.16,0,0,0-.16.15v45.53a4.79,4.79,0,0,0,4.79,4.78H425a4.78,4.78,0,0,0,4.78-4.78V404.23a.15.15,0,0,0-.15-.15Z"/><circle class="cls-3" cx="399.12" cy="410.44" r="2.34"/><ellipse class="cls-3" cx="404.59" cy="423.22" rx="1.28" ry="2.34"/><circle class="cls-3" cx="405.03" cy="428.15" r="0.84"/><ellipse class="cls-38" cx="236.61" cy="468.32" rx="4.63" ry="1.66"/><ellipse class="cls-38" cx="518.56" cy="468.32" rx="4.63" ry="1.66"/><circle class="cls-38" cx="243.38" cy="467.25" r="1.07"/><circle class="cls-38" cx="282.4" cy="465.86" r="3.14"/><circle class="cls-38" cx="287.38" cy="468.75" r="1.23"/><path class="cls-3" d="M160.91,458.12h97.43a0,0,0,0,1,0,0v0a4.61,4.61,0,0,1-4.61,4.61H165.52a4.61,4.61,0,0,1-4.61-4.61v0A0,0,0,0,1,160.91,458.12Z"/><path class="cls-8" d="M522.9,474.72H9.3a9.3,9.3,0,0,1,0-18.6H522.9a9.3,9.3,0,1,1,0,18.6ZM9.3,460.12a5.3,5.3,0,0,0,0,10.6H522.9a5.3,5.3,0,1,0,0-10.6Z"/><path class="cls-43" d="M148.22,457.9l-54.12.29-3-12.66h47.33c7,0,12.06,4.62,12.06,11.62Z"/><path class="cls-44" d="M150.09,457.19l-57,1v-6.66h45.33c7,0,11.66-1.33,11.66,5.66Z"/><path class="cls-45" d="M129.53,458.19l-35.63-.3-1-6.66,43.29.3h0A6.66,6.66,0,0,1,129.53,458.19Z"/><path class="cls-3" d="M151.62,456.39l-10,1.51V445.24l-.24.29c7,0,11.63.07,11.63,7.06Z"/><path class="cls-8" d="M146.9,458.91H91.75V443.25H146.9a7.83,7.83,0,0,1,0,15.66Zm-52.15-3H146.9a4.83,4.83,0,0,0,0-9.66H94.75Z"/><path class="cls-43" d="M65.33,413.07a56.64,56.64,0,0,0-11.12-20.39c10.27-4.19,21.69-3,30.12,4.24"/><path class="cls-46" d="M80.05,402.49c-2.26-7.49-18-9.5-26.93-8.71,10.27-4.19,21.69-3,30.12,4.24"/><path class="cls-47" d="M55.42,391.93c.41.48-1.27,1.11-.87,1.61,9.4-3.25,19.62-2.28,27.46,3.82l1.45-1.05C75.07,389.1,65.73,387.74,55.42,391.93Z"/><path class="cls-8" d="M70.5,408.88l-5.35,4.24a56.85,56.85,0,0,0-10.42-20.76h0A56.58,56.58,0,0,1,70.5,408.88Z"/><path class="cls-8" d="M66.24,403.82a.86.86,0,0,1-.74-.41c-4.57-7.49-11-9-11.1-9a.87.87,0,0,1-.66-1,.89.89,0,0,1,1-.66c.29.07,7.25,1.71,12.2,9.81a.86.86,0,0,1-.28,1.19h0A.81.81,0,0,1,66.24,403.82Z"/><path class="cls-3" d="M68.56,395.63a6.54,6.54,0,0,0-2.37-.57.48.48,0,0,1-.47-.5.5.5,0,0,1,.5-.47,7.81,7.81,0,0,1,2.74.62.5.5,0,1,1-.4.92Z"/><ellipse class="cls-48" cx="62.04" cy="394.03" rx="1.01" ry="1.26" transform="translate(-333.12 448.44) rotate(-88.89)"/><path class="cls-8" d="M63.38,413.51a54.87,54.87,0,0,0-10.82-19.86l-1.35-1.57,1.92-.79c11.23-4.58,23.06-2.9,31.67,4.49l-2,2.28c-7.24-6.22-17.08-7.92-26.65-4.71a57.49,57.49,0,0,1,10.06,19.29Z"/><path class="cls-43" d="M54.15,407.83h31a18.59,18.59,0,0,1,18.59,18.59v13.31a18.59,18.59,0,0,1-18.59,18.59H40.84a18.59,18.59,0,0,1-18.59-18.59h0A31.9,31.9,0,0,1,54.15,407.83Z"/><path class="cls-46" d="M52.61,408.72h31a18.59,18.59,0,0,1,18.59,18.59v13.31c0,10.27-8.32-25.94-18.59-25.94l-33.33.19c-10.26,0-25.12,8.23-29.57,25.75h0A31.9,31.9,0,0,1,52.61,408.72Z"/><path class="cls-3" d="M53.19,406.93h31a18.59,18.59,0,0,1,18.59,18.59v13.31c0,10.27-7.66-28.21-17.93-28.21L51.7,411c-14.86.49-26,10.37-30.41,27.88h0A31.9,31.9,0,0,1,53.19,406.93Z"/><path class="cls-44" d="M103.29,432.24v7.22A18.58,18.58,0,0,1,84.71,458H40.44a18.57,18.57,0,0,1-18.59-18.57h0a31.24,31.24,0,0,1,.26-4.1,18.58,18.58,0,0,0,18.33,15.47H84.73A18.59,18.59,0,0,0,103.29,432.24Z"/><path class="cls-8" d="M28,421.27s-1.25,10.14,9.29,12.92c0,0-6.66-15.54,3.88-22.75"/><path class="cls-8" d="M33,417s-1.25,10.13,9.29,12.88c0,0-6.65-15.54,3.89-22.75"/><path class="cls-3" d="M52.27,414.48c-1.63.13-3.2.1-4.66.25a14.58,14.58,0,0,0-4.31,1,1,1,0,0,1-.85-1.82,16.49,16.49,0,0,1,4.8-1.73,35,35,0,0,1,4.87-.39,1.33,1.33,0,0,1,.16,2.66Z"/><ellipse class="cls-3" cx="27.02" cy="430.49" rx="1.26" ry="1.01" transform="translate(-368.23 257.78) rotate(-62.81)"/><path class="cls-3" d="M18.26,432.45a.93.93,0,0,1-.22,0,.67.67,0,0,1-.4-.85A18.85,18.85,0,0,1,18.78,429a.66.66,0,0,1,.9-.27.68.68,0,0,1,.27.91A16.07,16.07,0,0,0,18.89,432,.67.67,0,0,1,18.26,432.45Z"/><path class="cls-8" d="M84.72,459.82H40.41a20.11,20.11,0,0,1-20.09-20.09,33.43,33.43,0,0,1,33.4-33.4h31a20.11,20.11,0,0,1,20.09,20.09v13.31A20.11,20.11,0,0,1,84.72,459.82Zm-31-50.49a30.44,30.44,0,0,0-30.4,30.4,17.11,17.11,0,0,0,17.09,17.09H84.72a17.11,17.11,0,0,0,17.09-17.09V426.42a17.11,17.11,0,0,0-17.09-17.09Z"/><g class="cls-49"><path class="cls-35" d="M121.3,424.23a2.5,2.5,0,0,1-2.5-2.5V407.55a2.5,2.5,0,0,1,5,0v14.17a2.49,2.49,0,0,1-2.49,2.51Z"/><path class="cls-35" d="M121.3,403.6a2.5,2.5,0,0,1-2.5-2.5v-5.3a2.5,2.5,0,0,1,5,0v5.3A2.49,2.49,0,0,1,121.3,403.6Z"/></g><path class="cls-43" d="M125.76,405.23a56.82,56.82,0,0,1,11.11-20.4c-10.27-4.18-21.69-3-30.12,4.25"/><path class="cls-46" d="M108.17,399.64c2.26-7.49,17.24-15.48,28.7-14.81-10.27-4.18-21.69-3-30.12,4.25"/><path class="cls-3" d="M107.11,394.93c2.25-7.49,20.85-13.4,30.12-9.75-10.27-4.18-21.69-3-30.12,4.25"/><path class="cls-8" d="M122.15,396.48l4.79,6.83c2-7.56,5.46-13,10.32-19.13l.09-1.63C131,386.91,126.21,390,122.15,396.48Z"/><path class="cls-43" d="M93.4,388.71h5.7a33,33,0,0,1,33,33h0a33,33,0,0,1-33,33H93.4a33,33,0,0,1-33-33h0A33,33,0,0,1,93.4,388.71Z"/><path class="cls-44" d="M132.64,420.16a33,33,0,0,1-33,33h-5.7a33,33,0,0,1-33-33c0-.71,0-1.41.07-2.11A33,33,0,0,0,94,449h5.7a33,33,0,0,0,32.94-30.9C132.62,418.75,132.64,419.45,132.64,420.16Z"/><path class="cls-8" d="M128.17,439.43c-6.89-1.63-6.39-.82-12.65-7.94,0,0-1.85,8.95,5.19,14.15Z"/><path class="cls-8" d="M122.26,444.23s-5.41-.76-10.54-6.19c0,0-1.16,7.36,4.11,11.24Z"/><path class="cls-8" d="M141.77,432.25a.87.87,0,0,1-.72-.39c-1.64-2.49-3.21-2.72-5.82-3.09a29.19,29.19,0,0,1-3.48-.64,31.62,31.62,0,0,0-5-.83.88.88,0,0,1-.78-.94.86.86,0,0,1,.93-.78h0a33.81,33.81,0,0,1,5.28.87,28.19,28.19,0,0,0,3.3.61c2.65.38,4.94.7,7,3.84a.88.88,0,0,1-.25,1.21.86.86,0,0,1-.47.14Z"/><path class="cls-8" d="M150.84,440.81a.83.83,0,0,1-.72-.39c-1.63-2.47-8.33-5.37-18.37-8a34.06,34.06,0,0,0-5-.82.87.87,0,0,1,.16-1.73,33.83,33.83,0,0,1,5.28.88c7.5,1.94,17,5,19.38,8.69a.88.88,0,0,1-.23,1.2h0A.81.81,0,0,1,150.84,440.81Z"/><path class="cls-8" d="M140.05,442.68h-.15a12.48,12.48,0,0,1-7.43-3.86,15.43,15.43,0,0,0-3.59-2.68,32.33,32.33,0,0,0-4.71-1.88.86.86,0,0,1-.57-1.08h0a.86.86,0,0,1,1.08-.56,34.76,34.76,0,0,1,5,2,17.75,17.75,0,0,1,4,2.95c1.73,1.59,3.22,3,6.51,3.42a.87.87,0,0,1-.13,1.73Z"/><rect class="cls-3" x="72.73" y="403.57" width="21.53" height="26.21" rx="10.76"/><rect class="cls-3" x="100.85" y="403.57" width="21.53" height="26.21" rx="10.76"/><circle class="cls-8" cx="111.65" cy="417.32" r="8.06"/><circle class="cls-50" cx="113.93" cy="420.76" r="2.04"/><ellipse class="cls-3" cx="109.97" cy="414.21" rx="4.08" ry="3.11"/><circle class="cls-8" cx="83.31" cy="417.32" r="8.06"/><circle class="cls-50" cx="85.6" cy="420.76" r="2.04"/><ellipse class="cls-3" cx="81.64" cy="414.21" rx="4.08" ry="3.11"/><path class="cls-8" d="M70.25,413.89h-.19a.87.87,0,0,1-.66-1,14.2,14.2,0,0,1,6.39-8.47c4.06-2.35,9.33-2.55,15.68-.58a.86.86,0,0,1-.51,1.65c-5.87-1.82-10.68-1.67-14.3.43a12.53,12.53,0,0,0-5.57,7.34A.84.84,0,0,1,70.25,413.89Z"/><path class="cls-8" d="M123.33,413.86a.87.87,0,0,1-.84-.66,12.23,12.23,0,0,0-5.37-6.84c-3.67-2.18-8.56-2.49-14.54-.94a.87.87,0,0,1-.43-1.68c6.46-1.67,11.8-1.29,15.88,1.15a13.76,13.76,0,0,1,6.14,7.9.86.86,0,0,1-.63,1Z"/><path class="cls-51" d="M95.33,428a1.87,1.87,0,0,0-1.42,3.1c.85.94,2.07,2.05,3.44,2.05s2.59-1.11,3.43-2.05a1.88,1.88,0,0,0-.17-2.64,1.92,1.92,0,0,0-1.19-.46Z"/><path class="cls-3" d="M82.39,395a23.89,23.89,0,0,1,5.38-1.83,28.69,28.69,0,0,1,5.62-.53,1,1,0,0,1,.09,2,26.7,26.7,0,0,0-5.11,1,36,36,0,0,0-4.85,1.77,1.34,1.34,0,0,1-1.76-.68A1.35,1.35,0,0,1,82.39,395Z"/><ellipse class="cls-3" cx="97.33" cy="393.56" rx="1.01" ry="1.26" transform="translate(-298.04 483.28) rotate(-88.89)"/><path class="cls-8" d="M99.1,456.73H93.4a35,35,0,0,1,0-70h5.7a35,35,0,1,1,0,70Zm-5.7-66a31,31,0,0,0,0,62h5.7a31,31,0,1,0,0-62Z"/><path class="cls-8" d="M61.05,435.47a.86.86,0,0,1-.85-.88.94.94,0,0,1,.13-.46c2.07-3.14,4.36-3.47,7-3.85a24.28,24.28,0,0,0,3.3-.61,33.81,33.81,0,0,1,5.28-.87.86.86,0,0,1,.94.78.85.85,0,0,1-.78.94h0a31.62,31.62,0,0,0-5,.83,28.85,28.85,0,0,1-3.48.65c-2.61.37-4.18.59-5.82,3.08A.87.87,0,0,1,61.05,435.47Z"/><path class="cls-8" d="M52,444a.86.86,0,0,1-.86-.87.9.9,0,0,1,.14-.48c2.42-3.67,11.88-6.75,19.38-8.69a33.81,33.81,0,0,1,5.28-.87.86.86,0,0,1,.94.77h0a.87.87,0,0,1-.78.94,31.62,31.62,0,0,0-5,.83c-10,2.59-16.74,5.5-18.37,8A.84.84,0,0,1,52,444Z"/><path class="cls-8" d="M62.76,445.9a.86.86,0,0,1-.92-.8.87.87,0,0,1,.8-.92c3.29-.47,4.78-1.84,6.51-3.42a17,17,0,0,1,4-2.95,33.64,33.64,0,0,1,5-2,.86.86,0,0,1,1.08.54v0a.86.86,0,0,1-.54,1.09h0A32.28,32.28,0,0,0,74,439.33,16.16,16.16,0,0,0,70.37,442a12.48,12.48,0,0,1-7.43,3.86Z"/><path class="cls-8" d="M128.51,404.94l-2.92-.68a57.79,57.79,0,0,1,8.81-19.9c-9.77-2.6-19.47-.27-26.3,6.4l-2.1-2.14c8.11-7.93,19.82-10.35,31.32-6.51l2,.66L138,384.43A55,55,0,0,0,128.51,404.94Z"/><ellipse class="cls-44" cx="102.29" cy="446.8" rx="2.41" ry="0.9"/><circle class="cls-44" cx="97.73" cy="446.99" r="0.93"/><ellipse class="cls-3" cx="120.21" cy="390.85" rx="1.7" ry="0.82" transform="matrix(0.87, -0.5, 0.5, 0.87, -179.32, 112.47)"/><circle class="cls-3" cx="122.15" cy="392.36" r="0.38"/><ellipse class="cls-44" cx="47.71" cy="448.14" rx="2.87" ry="1.14"/><circle class="cls-44" cx="41.15" cy="448.87" r="1"/></g></g></svg>